<mxfile host="www.draw.io" modified="2020-04-25T04:23:02.337Z" agent="5.0 (Macintosh; Intel Mac OS X 10_13_1) AppleWebKit/537.36 (KHTML, like Gecko) Chrome/80.0.3987.163 Safari/537.36" etag="LXPbr6oJI_IneH0ZATqg" version="13.0.1" type="github">
  <diagram id="kHOsYkVyVwjFpKKAKABI" name="第 1 页">
    <mxGraphModel dx="946" dy="614" grid="0" gridSize="10" guides="1" tooltips="1" connect="1" arrows="1" fold="1" page="1" pageScale="1" pageWidth="3300" pageHeight="4681" math="0" shadow="0">
      <root>
        <mxCell id="0" />
        <mxCell id="1" parent="0" />
        <mxCell id="FkmjG-wsNh1ThxZwf8ZQ-5" value="" style="rounded=0;whiteSpace=wrap;html=1;" vertex="1" parent="1">
          <mxGeometry x="390" y="246" width="300" height="130" as="geometry" />
        </mxCell>
        <mxCell id="FkmjG-wsNh1ThxZwf8ZQ-24" value="" style="rounded=0;whiteSpace=wrap;html=1;dashed=1;fillColor=none;" vertex="1" parent="1">
          <mxGeometry x="310" y="325" width="400" height="40" as="geometry" />
        </mxCell>
        <mxCell id="FkmjG-wsNh1ThxZwf8ZQ-1" value="游子" style="shape=umlActor;verticalLabelPosition=bottom;labelBackgroundColor=#ffffff;verticalAlign=top;html=1;outlineConnect=0;" vertex="1" parent="1">
          <mxGeometry x="465" y="136" width="20" height="30" as="geometry" />
        </mxCell>
        <mxCell id="FkmjG-wsNh1ThxZwf8ZQ-3" value="游子" style="shape=umlActor;verticalLabelPosition=bottom;labelBackgroundColor=#ffffff;verticalAlign=top;html=1;outlineConnect=0;" vertex="1" parent="1">
          <mxGeometry x="530" y="136" width="20" height="30" as="geometry" />
        </mxCell>
        <mxCell id="FkmjG-wsNh1ThxZwf8ZQ-4" value="游子" style="shape=umlActor;verticalLabelPosition=bottom;labelBackgroundColor=#ffffff;verticalAlign=top;html=1;outlineConnect=0;" vertex="1" parent="1">
          <mxGeometry x="595" y="136" width="20" height="30" as="geometry" />
        </mxCell>
        <mxCell id="FkmjG-wsNh1ThxZwf8ZQ-6" value="亲情、乡情" style="ellipse;whiteSpace=wrap;html=1;fillColor=#f8cecc;strokeColor=#b85450;" vertex="1" parent="1">
          <mxGeometry x="485" y="260" width="110" height="50" as="geometry" />
        </mxCell>
        <mxCell id="FkmjG-wsNh1ThxZwf8ZQ-8" style="rounded=0;orthogonalLoop=1;jettySize=auto;html=1;endArrow=oval;endFill=1;startArrow=oval;startFill=1;exitX=0.5;exitY=0;exitDx=0;exitDy=0;" edge="1" parent="1" source="FkmjG-wsNh1ThxZwf8ZQ-6">
          <mxGeometry relative="1" as="geometry">
            <mxPoint x="480" y="190" as="targetPoint" />
          </mxGeometry>
        </mxCell>
        <mxCell id="FkmjG-wsNh1ThxZwf8ZQ-9" style="rounded=0;orthogonalLoop=1;jettySize=auto;html=1;endArrow=oval;endFill=1;startArrow=oval;startFill=1;exitX=0.5;exitY=0;exitDx=0;exitDy=0;" edge="1" parent="1" source="FkmjG-wsNh1ThxZwf8ZQ-6">
          <mxGeometry relative="1" as="geometry">
            <mxPoint x="540" y="190" as="targetPoint" />
            <mxPoint x="516.4230647570805" y="271.46921535896854" as="sourcePoint" />
          </mxGeometry>
        </mxCell>
        <mxCell id="FkmjG-wsNh1ThxZwf8ZQ-10" style="rounded=0;orthogonalLoop=1;jettySize=auto;html=1;endArrow=oval;endFill=1;startArrow=oval;startFill=1;" edge="1" parent="1">
          <mxGeometry relative="1" as="geometry">
            <mxPoint x="590" y="190" as="targetPoint" />
            <mxPoint x="540" y="260" as="sourcePoint" />
          </mxGeometry>
        </mxCell>
        <mxCell id="FkmjG-wsNh1ThxZwf8ZQ-11" value="商城" style="rounded=1;whiteSpace=wrap;html=1;fillColor=#dae8fc;strokeColor=#6c8ebf;" vertex="1" parent="1">
          <mxGeometry x="405" y="330" width="60" height="30" as="geometry" />
        </mxCell>
        <mxCell id="FkmjG-wsNh1ThxZwf8ZQ-12" value="资讯" style="rounded=1;whiteSpace=wrap;html=1;fillColor=#dae8fc;strokeColor=#6c8ebf;" vertex="1" parent="1">
          <mxGeometry x="475" y="330" width="60" height="30" as="geometry" />
        </mxCell>
        <mxCell id="FkmjG-wsNh1ThxZwf8ZQ-13" value="文旅" style="rounded=1;whiteSpace=wrap;html=1;fillColor=#dae8fc;strokeColor=#6c8ebf;" vertex="1" parent="1">
          <mxGeometry x="545" y="330" width="60" height="30" as="geometry" />
        </mxCell>
        <mxCell id="FkmjG-wsNh1ThxZwf8ZQ-14" value="活动" style="rounded=1;whiteSpace=wrap;html=1;fillColor=#dae8fc;strokeColor=#6c8ebf;" vertex="1" parent="1">
          <mxGeometry x="615" y="330" width="60" height="30" as="geometry" />
        </mxCell>
        <mxCell id="FkmjG-wsNh1ThxZwf8ZQ-23" style="edgeStyle=none;rounded=0;orthogonalLoop=1;jettySize=auto;html=1;entryX=1;entryY=0.5;entryDx=0;entryDy=0;startArrow=oval;startFill=1;endArrow=oval;endFill=1;" edge="1" parent="1" target="FkmjG-wsNh1ThxZwf8ZQ-6">
          <mxGeometry relative="1" as="geometry">
            <mxPoint x="770" y="285" as="sourcePoint" />
          </mxGeometry>
        </mxCell>
        <mxCell id="FkmjG-wsNh1ThxZwf8ZQ-20" value="站长" style="shape=umlActor;verticalLabelPosition=bottom;labelBackgroundColor=#ffffff;verticalAlign=top;html=1;outlineConnect=0;" vertex="1" parent="1">
          <mxGeometry x="770" y="270" width="20" height="30" as="geometry" />
        </mxCell>
        <mxCell id="FkmjG-wsNh1ThxZwf8ZQ-25" value="场景" style="text;html=1;strokeColor=none;fillColor=none;align=center;verticalAlign=middle;whiteSpace=wrap;rounded=0;dashed=1;" vertex="1" parent="1">
          <mxGeometry x="330" y="335" width="40" height="20" as="geometry" />
        </mxCell>
        <mxCell id="FkmjG-wsNh1ThxZwf8ZQ-26" value="" style="rounded=0;whiteSpace=wrap;html=1;dashed=1;fillColor=none;" vertex="1" parent="1">
          <mxGeometry x="310" y="256" width="400" height="60" as="geometry" />
        </mxCell>
        <mxCell id="FkmjG-wsNh1ThxZwf8ZQ-27" value="价值" style="text;html=1;strokeColor=none;fillColor=none;align=center;verticalAlign=middle;whiteSpace=wrap;rounded=0;dashed=1;" vertex="1" parent="1">
          <mxGeometry x="330" y="276" width="40" height="20" as="geometry" />
        </mxCell>
        <mxCell id="FkmjG-wsNh1ThxZwf8ZQ-28" value="游子在线" style="text;html=1;strokeColor=none;fillColor=none;align=center;verticalAlign=middle;whiteSpace=wrap;rounded=0;dashed=1;" vertex="1" parent="1">
          <mxGeometry x="626" y="378" width="68" height="20" as="geometry" />
        </mxCell>
        <mxCell id="FkmjG-wsNh1ThxZwf8ZQ-29" value="使命：乡村振兴" style="rounded=1;whiteSpace=wrap;html=1;dashed=1;fillColor=#d5e8d4;strokeColor=#82b366;" vertex="1" parent="1">
          <mxGeometry x="480" y="437" width="120" height="36" as="geometry" />
        </mxCell>
        <mxCell id="FkmjG-wsNh1ThxZwf8ZQ-19" style="edgeStyle=none;rounded=0;orthogonalLoop=1;jettySize=auto;html=1;exitX=0.5;exitY=1;exitDx=0;exitDy=0;entryX=0.5;entryY=0;entryDx=0;entryDy=0;startArrow=oval;startFill=1;endArrow=oval;endFill=1;" edge="1" parent="1" source="FkmjG-wsNh1ThxZwf8ZQ-5" target="FkmjG-wsNh1ThxZwf8ZQ-29">
          <mxGeometry relative="1" as="geometry">
            <mxPoint x="501.5" y="430" as="targetPoint" />
          </mxGeometry>
        </mxCell>
      </root>
    </mxGraphModel>
  </diagram>
</mxfile>
